<?xml version="1.0" encoding="UTF-8" standalone="no"?>
<!-- Created with Inkscape (http://www.inkscape.org/) -->
<svg
   xmlns:svg="http://www.w3.org/2000/svg"
   xmlns="http://www.w3.org/2000/svg"
   version="1.0"
   width="587.97339"
   height="192.80119"
   id="svg2718">
  <defs
     id="defs2720" />
  <g
     transform="translate(328.2591,-67.30791)"
     id="layer1">
    <g
       transform="translate(-791.0714,302.8571)"
       style="fill:white"
       id="g2692">
      <path
         d="M 653.28571,-43.24579 C 644.05981,-44.193 626.65334,-48.21443 616.28571,-51.79392 C 593.40187,-59.69473 571.15648,-72.06627 541.54519,-93.36009 C 533.7129,-98.99238 526.2879,-104.0257 525.04519,-104.54525 C 523.80247,-105.0648 519.02651,-106.16616 514.43192,-106.99271 C 498.18337,-109.91579 482.36498,-120.18154 472.90899,-133.94007 C 459.2712,-153.78317 459.47314,-185.64404 473.36861,-206.45266 C 479.4181,-215.51184 489.00237,-223.88805 498.67657,-228.57063 C 508.81245,-233.47668 517.88682,-235.52593 529.57787,-235.54902 C 566.42764,-235.62179 592.19592,-212.47233 594.86386,-176.898 C 597.01075,-148.27141 583.78143,-124.52398 558.53571,-111.68681 C 556.19821,-110.49822 554.28667,-108.97238 554.28783,-108.29606 C 554.29292,-105.35228 585.90865,-82.9773 604.61324,-72.67993 C 629.95233,-58.73009 647.99789,-52.69275 666.78571,-51.87947 C 680.72863,-51.27592 688.8706,-52.7598 699.01313,-57.75295 C 705.43305,-60.91347 708.06031,-60.74852 706.72501,-57.26878 C 705.95101,-55.25179 697.20067,-49.44914 691.7029,-47.30711 C 681.7586,-43.43262 666.8338,-41.85483 653.28571,-43.24579 z M 549.26534,-116.62656 C 568.97627,-125.71192 578.41962,-149.75408 573.89988,-179.34454 C 572.31232,-189.7382 568.06393,-202.15056 564.11324,-207.9378 C 559.9066,-214.09996 552.69138,-220.78184 547.24579,-223.55841 C 527.82125,-233.4625 503.49611,-227.64288 492.01419,-210.34464 C 479.23315,-191.08918 479.99195,-155.49654 493.63639,-134.25352 C 503.2001,-119.36377 516.75825,-112.20724 533.95494,-112.97179 C 540.59605,-113.26704 543.45998,-113.9507 549.26534,-116.62656 z M 803.28571,-108.42634 C 803.28571,-114.47655 802.70337,-114.56638 763.47987,-114.56638 C 735.8533,-114.56638 728.20914,-114.83667 728.53096,-115.80212 C 728.75751,-116.48178 730.93183,-117.3774 733.36278,-117.79239 C 735.79373,-118.20739 738.90837,-119.38179 740.2842,-120.40217 C 745.09613,-123.97092 745.39663,-126.95551 745.07945,-168.02868 C 744.71866,-214.74919 745.52834,-212.05141 730.96467,-215.05779 C 729.4131,-215.37809 728.31119,-216.14282 728.51598,-216.7572 C 728.77886,-217.54582 738.18634,-217.90251 760.51112,-217.97032 C 796.53961,-218.07976 794.71648,-217.66812 801.11565,-227.13835 C 804.58015,-232.26552 806.28988,-233.67636 806.27981,-231.39971 C 806.27657,-230.66638 803.88888,-223.31638 800.97383,-215.06638 C 797.45412,-205.10512 795.18867,-200.06638 794.22972,-200.06638 C 793.40772,-200.06638 792.65245,-201.21942 792.47635,-202.7432 C 791.9502,-207.29584 790.61045,-207.6416 774.65025,-207.34377 L 759.78571,-207.06638 L 759.78571,-190.56638 L 759.78571,-174.06638 L 770.78571,-173.80254 C 783.92565,-173.48737 786.69484,-174.68156 791.02373,-182.52999 C 793.45988,-186.94682 796.28571,-189.17886 796.28571,-186.68627 C 796.28571,-185.82786 788.33881,-162.82968 786.12408,-157.27869 C 784.75436,-153.84564 783.10102,-154.19906 782.69451,-158.01178 C 782.2308,-162.36107 780.8729,-163.03774 771.85319,-163.41419 C 759.09092,-163.94685 759.28571,-164.18578 759.28571,-147.99908 C 759.28571,-133.26779 760.38794,-128.67026 764.45105,-126.45378 C 767.08515,-125.01684 794.91482,-123.89902 800.75906,-124.9954 C 805.31162,-125.84947 810.42501,-130.33128 812.7635,-135.51712 C 814.5228,-139.41856 815.66985,-140.40115 816.61495,-138.81638 C 816.86095,-138.40388 814.52501,-130.90009 811.42397,-122.1413 C 805.91058,-106.56891 803.28571,-102.14536 803.28571,-108.42634 z M 901.16729,-107.23305 C 901.10216,-107.69138 901.11961,-108.45623 901.20607,-108.93272 C 901.29253,-109.40921 900.66045,-110.87171 899.80144,-112.18272 L 898.2396,-114.56638 L 862.26266,-114.56638 C 832.43913,-114.56638 826.28571,-114.80108 826.28571,-115.93857 C 826.28571,-116.77204 827.89733,-117.56847 830.39068,-117.96718 C 836.04161,-118.87079 839.67607,-120.93295 841.09102,-124.03844 C 841.95374,-125.93188 842.28571,-137.78901 842.28571,-166.70914 C 842.28571,-202.51916 842.10678,-207.06069 840.59514,-209.61971 C 838.79451,-212.66793 836.07994,-214.0863 830.03571,-215.13705 C 827.97321,-215.4956 826.28571,-216.30865 826.28571,-216.94383 C 826.28571,-217.7927 834.56594,-218.09442 857.53571,-218.08254 C 893.59766,-218.06389 893.39368,-218.0182 898.78571,-227.32271 C 901.87305,-232.65024 905.04242,-234.57204 903.72278,-230.31638 C 899.33803,-216.17606 892.83124,-199.56638 891.67657,-199.56638 C 890.81991,-199.56638 890.28571,-200.64181 890.28571,-202.36638 C 890.28571,-207.20103 889.0797,-207.56638 873.12089,-207.56638 C 859.54681,-207.56638 858.27259,-207.41039 857.32089,-205.63212 C 856.75154,-204.56828 856.28571,-197.7887 856.28571,-190.56638 C 856.28571,-183.34406 856.75154,-176.56448 857.32089,-175.50064 C 858.23279,-173.79674 859.48713,-173.56638 867.85301,-173.56638 C 881.22929,-173.56638 885.13652,-175.63477 890.57909,-185.59698 C 891.65596,-187.56811 892.73591,-188.51618 893.28214,-187.96995 C 894.10657,-187.14552 888.29746,-168.68703 883.92714,-158.24441 C 882.23246,-154.19505 880.28571,-154.09324 880.28571,-158.05397 C 880.28571,-162.55003 877.97434,-163.56638 867.74947,-163.56638 C 855.63391,-163.56638 855.78551,-163.80874 856.60201,-145.74489 C 857.51909,-125.45599 857.73707,-125.28458 882.78571,-125.1546 C 898.70264,-125.072 900.01363,-125.20813 903.36311,-127.29127 C 905.413,-128.56615 908.10835,-131.66184 909.67553,-134.54127 C 912.27184,-139.31156 914.35634,-141.04094 914.22583,-138.31638 C 914.07976,-135.26702 903.65786,-107.17895 902.53571,-106.81033 C 901.84821,-106.58449 901.23242,-106.77471 901.16729,-107.23305 z M 641.78571,-113.91594 C 634.79281,-115.73185 629.39745,-118.75241 625.14589,-123.23165 C 616.57933,-132.25697 615.32569,-138.65071 615.27663,-173.56638 C 615.25538,-188.69138 614.82262,-202.86638 614.31494,-205.06638 C 613.08617,-210.39119 608.8181,-214.1095 602.91946,-214.99405 C 599.85685,-215.45332 598.28571,-216.18075 598.28571,-217.13945 C 598.28571,-218.37344 601.83099,-218.55089 622.03571,-218.32818 C 637.05561,-218.16261 645.77371,-217.6988 645.75305,-217.06638 C 645.73509,-216.51638 643.05275,-215.39138 639.79231,-214.56638 C 634.9406,-213.33874 633.43547,-212.43088 631.50289,-209.56638 L 629.14156,-206.06638 L 629.52154,-175.56638 C 629.87223,-147.41717 630.06614,-144.62374 632.03731,-139.32347 C 634.92522,-131.55822 638.27455,-127.44441 644.53138,-123.97767 C 649.29974,-121.33564 650.66436,-121.06638 659.28571,-121.06638 C 667.94413,-121.06638 669.25948,-121.3288 674.13371,-124.02865 C 680.40878,-127.50442 684.23007,-132.58512 687.38655,-141.6493 C 689.33435,-147.24262 689.67546,-150.63378 690.04382,-168.06638 C 690.27626,-179.06638 690.03178,-192.76627 689.50054,-198.51057 C 688.59635,-208.28758 688.3436,-209.12547 685.54393,-211.62697 C 683.68312,-213.2896 680.80255,-214.56171 677.91946,-214.99405 C 674.8426,-215.45546 673.28571,-216.17914 673.28571,-217.14794 C 673.28571,-218.38844 676.39349,-218.56647 694.03571,-218.33667 C 715.55981,-218.0563 718.95052,-217.24324 709.03926,-214.73897 C 702.89708,-213.18702 700.75302,-211.51237 699.30991,-207.13972 C 698.73182,-205.38806 697.86992,-190.47998 697.3946,-174.01064 C 696.65915,-148.5284 696.23674,-143.15753 694.55984,-137.96718 C 690.91644,-126.69013 684.25017,-119.52165 673.28571,-115.09034 C 667.477,-112.74273 648.96185,-112.05244 641.78571,-113.91594 z M 1026.8057,-116.29005 C 1025.1666,-118.36703 1015.9416,-129.01704 1006.3057,-139.95673 C 996.66969,-150.89642 982.1455,-167.54642 974.02969,-176.95673 C 965.91387,-186.36704 958.84297,-194.21085 958.31657,-194.38742 C 956.44184,-195.01626 956.15886,-189.51388 956.4703,-158.48771 C 956.75242,-130.38279 956.97743,-126.71504 958.60213,-123.7376 C 960.49515,-120.26844 965.35196,-117.56638 969.69457,-117.56638 C 972.03865,-117.56638 974.04052,-115.98785 973.00706,-114.95439 C 972.38131,-114.32864 933.19011,-114.32864 932.56436,-114.95439 C 931.41385,-116.10491 933.6662,-117.56669 936.59473,-117.57012 C 938.34977,-117.57217 941.27529,-118.48203 943.09589,-119.59201 C 949.112,-123.25994 949.28631,-124.54784 949.28013,-165.28426 C 949.27691,-186.54493 948.85557,-203.57466 948.28165,-205.64064 C 946.92349,-210.52976 943.5608,-213.38857 937.93099,-214.44034 C 935.32528,-214.92714 932.90661,-215.61214 932.55619,-215.96257 C 930.78298,-217.73578 934.98965,-218.292 946.58178,-217.81707 L 959.37785,-217.29282 L 962.37529,-212.93618 C 972.33277,-198.46348 1022.0378,-142.56638 1024.9498,-142.56638 C 1026.0344,-142.56638 1026.2857,-148.16347 1026.2857,-172.32298 C 1026.2857,-188.68911 1025.8465,-203.61117 1025.3096,-205.48311 C 1023.9581,-210.19535 1020.6243,-213.42523 1016.3758,-214.13839 C 1010.611,-215.10606 1009.1533,-215.66913 1009.5251,-216.78457 C 1009.7537,-217.47031 1016.9515,-217.83305 1030.3302,-217.83305 C 1047.0795,-217.83305 1050.7857,-217.58241 1050.7857,-216.44971 C 1050.7857,-215.52149 1048.9818,-214.84623 1045.3025,-214.39721 C 1040.8951,-213.85932 1039.2765,-213.12051 1037.0525,-210.63143 C 1035.4561,-208.8447 1034.1869,-206.16674 1034.0521,-204.3006 C 1033.9236,-202.52178 1033.8111,-181.26638 1033.8021,-157.06638 C 1033.786,-113.8314 1033.7509,-113.06158 1031.7857,-112.79005 C 1030.4689,-112.60812 1028.7677,-113.80373 1026.8057,-116.29005 z "
         style="fill:white"
         id="path2694" />
    </g>
  </g>
</svg>
