<?xml version="1.0" standalone="no"?>
<!DOCTYPE svg PUBLIC "-//W3C//DTD SVG 20010904//EN"
 "http://www.w3.org/TR/2001/REC-SVG-20010904/DTD/svg10.dtd">
<svg version="1.0" xmlns="http://www.w3.org/2000/svg"
 width="16.000000pt" height="16.000000pt" viewBox="0 0 16.000000 16.000000"
 preserveAspectRatio="xMidYMid meet">

<g transform="translate(0.000000,16.000000) scale(0.100000,-0.100000)"
fill="yellow" stroke="none">
<path d="M67 110 c-7 -32 -33 -41 -43 -15 -4 8 -10 15 -15 15 -5 0 -5 -7 0
-17 5 -10 12 -26 15 -35 8 -26 104 -26 112 0 3 9 10 25 15 35 5 10 5 17 0 17
-5 0 -11 -7 -15 -15 -10 -26 -36 -17 -42 15 -4 17 -10 30 -14 30 -4 0 -10 -13
-13 -30z"/>
<path d="M30 20 c0 -5 23 -10 50 -10 28 0 50 5 50 10 0 6 -22 10 -50 10 -27 0
-50 -4 -50 -10z"/>
</g>
</svg>
